<svg width="100" height="100" viewBox="0 0 100 100" fill="none" xmlns="http://www.w3.org/2000/svg">
<rect width="100" height="100" fill="black"/>
<g clip-path="url(#clip0_5845_511)">
<path d="M27.2075 64.2145C27.6239 63.7987 28.1965 63.5562 28.8037 63.5562H83.8719C84.8781 63.5562 85.3813 64.7689 84.6699 65.4792L73.7916 76.3415C73.3753 76.7573 72.8027 76.9998 72.1955 76.9998H17.1273C16.121 76.9998 15.6179 75.7871 16.3292 75.0768L27.2075 64.2145Z" fill="url(#paint0_linear_5845_511)"/>
<path d="M27.2075 23.6583C27.6413 23.2425 28.2138 23 28.8037 23H83.8719C84.8781 23 85.3813 24.2127 84.6699 24.923L73.7916 35.7854C73.3753 36.2012 72.8027 36.4437 72.1955 36.4437H17.1273C16.121 36.4437 15.6179 35.231 16.3292 34.5207L27.2075 23.6583Z" fill="url(#paint1_linear_5845_511)"/>
<path d="M73.7916 43.8068C73.3753 43.391 72.8027 43.1484 72.1955 43.1484H17.1273C16.121 43.1484 15.6179 44.3611 16.3292 45.0714L27.2075 55.9338C27.6239 56.3496 28.1965 56.5921 28.8037 56.5921H83.8719C84.8781 56.5921 85.3813 55.3794 84.6699 54.6691L73.7916 43.8068Z" fill="url(#paint2_linear_5845_511)"/>
</g>
<defs>
<linearGradient id="paint0_linear_5845_511" x1="78.6112" y1="16.511" x2="40.5874" y2="89.4487" gradientUnits="userSpaceOnUse">
<stop stop-color="#00FFA3"/>
<stop offset="1" stop-color="#DC1FFF"/>
</linearGradient>
<linearGradient id="paint1_linear_5845_511" x1="61.9468" y1="7.82363" x2="23.923" y2="80.7614" gradientUnits="userSpaceOnUse">
<stop stop-color="#00FFA3"/>
<stop offset="1" stop-color="#DC1FFF"/>
</linearGradient>
<linearGradient id="paint2_linear_5845_511" x1="70.226" y1="12.1399" x2="32.2022" y2="85.0777" gradientUnits="userSpaceOnUse">
<stop stop-color="#00FFA3"/>
<stop offset="1" stop-color="#DC1FFF"/>
</linearGradient>
<clipPath id="clip0_5845_511">
<rect width="69" height="54" fill="white" transform="translate(16 23)"/>
</clipPath>
</defs>
</svg>
